<?xml version="1.0" encoding="UTF-8" standalone="no"?>
<svg
   xmlns:dc="http://purl.org/dc/elements/1.1/"
   xmlns:cc="http://creativecommons.org/ns#"
   xmlns:rdf="http://www.w3.org/1999/02/22-rdf-syntax-ns#"
   xmlns:svg="http://www.w3.org/2000/svg"
   xmlns="http://www.w3.org/2000/svg"
   xmlns:sodipodi="http://sodipodi.sourceforge.net/DTD/sodipodi-0.dtd"
   xmlns:inkscape="http://www.inkscape.org/namespaces/inkscape"
   width="752"
   height="752"
   version="1.1"
   viewBox="0 0 564.00001 564.00001"
   id="svg165"
   sodipodi:docname="Diet.svg"
   inkscape:export-filename="/home/marek/Downloads/pics/Diet.png"
   inkscape:export-xdpi="6.3829789"
   inkscape:export-ydpi="6.3829789"
   inkscape:version="1.0.2 (e86c870879, 2021-01-15)">
  <metadata
     id="metadata171">
    <rdf:RDF>
      <cc:Work
         rdf:about="">
        <dc:format>image/svg+xml</dc:format>
        <dc:type
           rdf:resource="http://purl.org/dc/dcmitype/StillImage" />
        <dc:title></dc:title>
      </cc:Work>
    </rdf:RDF>
  </metadata>
  <defs
     id="defs169" />
  <sodipodi:namedview
     pagecolor="#ffffff"
     bordercolor="#666666"
     borderopacity="1"
     objecttolerance="10"
     gridtolerance="10"
     guidetolerance="10"
     inkscape:pageopacity="0"
     inkscape:pageshadow="2"
     inkscape:window-width="1920"
     inkscape:window-height="990"
     id="namedview167"
     showgrid="false"
     inkscape:pagecheckerboard="true"
     units="px"
     inkscape:zoom="0.31403117"
     inkscape:cx="268.79288"
     inkscape:cy="602.69531"
     inkscape:window-x="0"
     inkscape:window-y="30"
     inkscape:window-maximized="1"
     inkscape:current-layer="svg165" />
  <g
     id="g163"
     transform="translate(-69.704387,0.602605)"
     style="fill:#ffffff;fill-opacity:1">
    <path
       d="M 266,196 C 246.398,159.602 238,117.602 238,75.6 V 55.998 h 14 c 5.6016,0 14,-5.6016 14,-14 v -28 c 0,-8.3984 -8.3984,-14 -14,-14 H 112 c -8.3984,0 -14,5.6016 -14,14 v 28 c 0,8.3984 5.6016,14 14,14 h 14 v 22.398 c 0,39.203 -11.199,81.203 -28,117.6 -16.801,36.397 -28,78.398 -28,117.6 v 218.4 c 0,16.801 14,28 28,28 h 168 c 14,0 28,-11.199 28,-28 v -218.4 c 0,-39.203 -11.199,-81.203 -28,-117.6 z"
       id="path159"
       style="fill:#ffffff;fill-opacity:1" />
    <path
       d="m 554.4,308 c -14,0 -25.199,2.8008 -36.398,8.3984 -2.8008,-5.6016 -14,-30.801 28,-72.801 11.199,-11.199 11.199,-28 0,-39.199 -11.199,-11.199 -28,-11.199 -39.199,0 -42,42 -50.398,81.199 -47.602,109.2 -8.3984,-2.8008 -19.602,-5.6016 -30.801,-5.6016 -50.398,-2.8008 -84,50.398 -75.602,120.4 8.398,70.002 58.801,128.8 109.2,134.4 11.199,0 22.398,-2.8008 30.801,-5.6016 8.3984,5.6016 19.602,5.6016 30.801,5.6016 50.398,-2.8008 100.8,-64.398 109.2,-134.4 5.6016,-72.793 -27.996,-126 -78.398,-120.39 z"
       id="path161"
       style="fill:#ffffff;fill-opacity:1" />
  </g>
</svg>
