<?xml version="1.0" encoding="UTF-8" standalone="no"?>
<svg
   xmlns:dc="http://purl.org/dc/elements/1.1/"
   xmlns:cc="http://creativecommons.org/ns#"
   xmlns:rdf="http://www.w3.org/1999/02/22-rdf-syntax-ns#"
   xmlns:svg="http://www.w3.org/2000/svg"
   xmlns="http://www.w3.org/2000/svg"
   xmlns:sodipodi="http://sodipodi.sourceforge.net/DTD/sodipodi-0.dtd"
   xmlns:inkscape="http://www.inkscape.org/namespaces/inkscape"
   width="747"
   height="747"
   version="1.1"
   viewBox="0 0 560.25001 560.25001"
   id="svg219"
   sodipodi:docname="Farmyard.svg"
   inkscape:export-filename="/home/marek/Downloads/Farmyard.png"
   inkscape:export-xdpi="12.851406"
   inkscape:export-ydpi="12.851406"
   inkscape:version="1.0.2 (e86c870879, 2021-01-15)">
  <metadata
     id="metadata223">
    <rdf:RDF>
      <cc:Work
         rdf:about="">
        <dc:format>image/svg+xml</dc:format>
        <dc:type
           rdf:resource="http://purl.org/dc/dcmitype/StillImage" />
        <dc:title></dc:title>
      </cc:Work>
    </rdf:RDF>
  </metadata>
  <sodipodi:namedview
     pagecolor="#ffffff"
     bordercolor="#666666"
     borderopacity="1"
     objecttolerance="10"
     gridtolerance="10"
     guidetolerance="10"
     inkscape:pageopacity="0"
     inkscape:pageshadow="2"
     inkscape:window-width="1920"
     inkscape:window-height="990"
     id="namedview221"
     showgrid="false"
     units="px"
     inkscape:pagecheckerboard="true"
     inkscape:zoom="0.88821429"
     inkscape:cx="466.66667"
     inkscape:cy="511.70084"
     inkscape:window-x="0"
     inkscape:window-y="30"
     inkscape:window-maximized="1"
     inkscape:current-layer="svg219" />
  <defs
     id="defs65">
    <symbol
       id="u"
       overflow="visible">
      <path
         d="m 18.766,-1.125 c -0.96875,0.5 -1.9805,0.875 -3.0312,1.125 -1.043,0.25781 -2.1367,0.39062 -3.2812,0.39062 -3.3984,0 -6.0898,-0.94531 -8.0781,-2.8438 -1.9922,-1.9062 -2.9844,-4.4844 -2.9844,-7.7344 0,-3.2578 0.99219,-5.8359 2.9844,-7.7344 1.9883,-1.9062 4.6797,-2.8594 8.0781,-2.8594 1.1445,0 2.2383,0.13281 3.2812,0.39062 1.0508,0.25 2.0625,0.625 3.0312,1.125 v 4.2188 c -0.98047,-0.65625 -1.9453,-1.1406 -2.8906,-1.4531 -0.94922,-0.3125 -1.9492,-0.46875 -3,-0.46875 -1.875,0 -3.3516,0.60547 -4.4219,1.8125 -1.0742,1.1992 -1.6094,2.8555 -1.6094,4.9688 0,2.1055 0.53516,3.7617 1.6094,4.9688 1.0703,1.1992 2.5469,1.7969 4.4219,1.7969 1.0508,0 2.0508,-0.14844 3,-0.45312 0.94531,-0.3125 1.9102,-0.80078 2.8906,-1.4688 z"
         id="path2" />
    </symbol>
    <symbol
       id="d"
       overflow="visible">
      <path
         d="m 13.734,-11.141 c -0.4375,-0.19531 -0.87109,-0.34375 -1.2969,-0.4375 -0.41797,-0.10156 -0.83984,-0.15625 -1.2656,-0.15625 -1.2617,0 -2.2305,0.40625 -2.9062,1.2188 -0.67969,0.80469 -1.0156,1.9531 -1.0156,3.4531 v 7.0625 H 2.3591 v -15.312 h 4.8906 v 2.5156 c 0.625,-1 1.3438,-1.7266 2.1562,-2.1875 0.82031,-0.46875 1.8008,-0.70312 2.9375,-0.70312 0.16406,0 0.34375,0.01172 0.53125,0.03125 0.19531,0.01172 0.47656,0.03906 0.84375,0.07813 z"
         id="path5" />
    </symbol>
    <symbol
       id="a"
       overflow="visible">
      <path
         d="m 17.641,-7.7031 v 1.4062 H 6.188 c 0.125,1.1484 0.53906,2.0078 1.25,2.5781 0.70703,0.57422 1.7031,0.85938 2.9844,0.85938 1.0312,0 2.082,-0.14844 3.1562,-0.45312 1.082,-0.3125 2.1914,-0.77344 3.3281,-1.3906 v 3.7656 c -1.1562,0.4375 -2.3125,0.76562 -3.4688,0.98438 -1.1562,0.22656 -2.3125,0.34375 -3.4688,0.34375 -2.7734,0 -4.9297,-0.70312 -6.4688,-2.1094 -1.5312,-1.4062 -2.2969,-3.3789 -2.2969,-5.9219 0,-2.5 0.75391,-4.4609 2.2656,-5.8906 1.5078,-1.4375 3.582,-2.1562 6.2188,-2.1562 2.4062,0 4.332,0.73047 5.7812,2.1875 1.4453,1.4492 2.1719,3.3828 2.1719,5.7969 z m -5.0312,-1.625 c 0,-0.92578 -0.27344,-1.6719 -0.8125,-2.2344 -0.54297,-0.57031 -1.25,-0.85938 -2.125,-0.85938 -0.94922,0 -1.7188,0.26562 -2.3125,0.79688 -0.5937,0.53126 -0.96484,1.2969 -1.1094,2.2969 z"
         id="path8" />
    </symbol>
    <symbol
       id="f"
       overflow="visible">
      <path
         d="m 9.2188,-6.8906 c -1.0234,0 -1.793,0.17188 -2.3125,0.51562 -0.51172,0.34375 -0.76562,0.85547 -0.76562,1.5312 0,0.625 0.20703,1.1172 0.625,1.4688 0.41406,0.34375 0.98828,0.51562 1.7188,0.51562 0.92578,0 1.7031,-0.32812 2.3281,-0.98438 0.63281,-0.66406 0.95312,-1.4922 0.95312,-2.4844 v -0.5625 z m 7.4688,-1.8438 V 0 h -4.9219 v -2.2656 c -0.65625,0.92969 -1.3984,1.6055 -2.2188,2.0312 -0.82422,0.41406 -1.8242,0.625 -3,0.625 -1.5859,0 -2.8711,-0.45703 -3.8594,-1.375 -0.99219,-0.92578 -1.4844,-2.1289 -1.4844,-3.6094 0,-1.7891 0.61328,-3.1016 1.8438,-3.9375 1.2383,-0.84375 3.1797,-1.2656 5.8281,-1.2656 h 2.8906 v -0.39062 c 0,-0.76953 -0.30859,-1.332 -0.92188,-1.6875 -0.61719,-0.36328 -1.5703,-0.54688 -2.8594,-0.54688 -1.0547,0 -2.0312,0.10547 -2.9375,0.3125 -0.89844,0.21094 -1.7305,0.52344 -2.5,0.9375 v -3.7344 c 1.0391,-0.25 2.0859,-0.44141 3.1406,-0.57812 1.0625,-0.13281 2.125,-0.20312 3.1875,-0.20312 2.7578,0 4.75,0.54688 5.9688,1.6406 1.2266,1.0859 1.8438,2.8555 1.8438,5.3125 z"
         id="path11" />
    </symbol>
    <symbol
       id="b"
       overflow="visible">
      <path
         d="m 7.7031,-19.656 v 4.3438 H 12.75 v 3.5 H 7.7031 v 6.5 c 0,0.71094 0.14062,1.1875 0.42188,1.4375 0.28126,0.25 0.83594,0.375 1.6719,0.375 h 2.5156 v 3.5 h -4.1875 c -1.9375,0 -3.3125,-0.39844 -4.125,-1.2031 -0.80469,-0.8125 -1.2031,-2.1797 -1.2031,-4.1094 v -6.5 h -2.4219 v -3.5 h 2.4219 v -4.3438 z"
         id="path14" />
    </symbol>
    <symbol
       id="n"
       overflow="visible">
      <path
         d="m 12.766,-13.078 v -8.2031 h 4.9219 V -1e-4 H 12.766 v -2.2188 c -0.66797,0.90625 -1.4062,1.5703 -2.2188,1.9844 -0.8126,0.4141 -1.7578,0.625 -2.8281,0.625 -1.8867,0 -3.4336,-0.75 -4.6406,-2.25 -1.2109,-1.5 -1.8125,-3.4258 -1.8125,-5.7812 0,-2.3633 0.60156,-4.2969 1.8125,-5.7969 1.207,-1.5 2.7539,-2.25 4.6406,-2.25 1.0625,0 2,0.21484 2.8125,0.64062 0.82031,0.42969 1.5664,1.0859 2.2344,1.9688 z m -3.2188,9.9219 c 1.0391,0 1.8359,-0.37891 2.3906,-1.1406 0.55078,-0.76953 0.82812,-1.8828 0.82812,-3.3438 0,-1.457 -0.27734,-2.5664 -0.82812,-3.3281 -0.55469,-0.76953 -1.3516,-1.1562 -2.3906,-1.1562 -1.043,0 -1.8398,0.38672 -2.3906,1.1562 -0.55469,0.76172 -0.82812,1.8711 -0.82812,3.3281 0,1.4609 0.27344,2.5742 0.82812,3.3438 0.55078,0.76172 1.3477,1.1406 2.3906,1.1406 z"
         id="path17" />
    </symbol>
    <symbol
       id="m"
       overflow="visible">
      <path
         d="m 10.5,-3.1562 c 1.0508,0 1.8516,-0.37891 2.4062,-1.1406 0.55078,-0.76953 0.82812,-1.8828 0.82812,-3.3438 0,-1.457 -0.27734,-2.5664 -0.82812,-3.3281 -0.55469,-0.76953 -1.3555,-1.1562 -2.4062,-1.1562 -1.0547,0 -1.8594,0.38672 -2.4219,1.1562 -0.55469,0.77344 -0.82812,1.8828 -0.82812,3.3281 0,1.4492 0.27344,2.5586 0.82812,3.3281 0.5625,0.77344 1.3672,1.1562 2.4219,1.1562 z m -3.25,-9.9219 c 0.67578,-0.88281 1.4219,-1.5391 2.2344,-1.9688 0.82031,-0.42578 1.7656,-0.64062 2.8281,-0.64062 1.8945,0 3.4453,0.75 4.6562,2.25 1.207,1.5 1.8125,3.4336 1.8125,5.7969 0,2.3555 -0.60547,4.2812 -1.8125,5.7812 -1.2109,1.5 -2.7617,2.25 -4.6562,2.25 -1.0625,0 -2.0078,-0.21094 -2.8281,-0.625 C 8.6719,-0.6602 7.9258,-1.32032 7.25,-2.21882 V -2e-5 H 2.3594 v -21.281 H 7.25 Z"
         id="path20" />
    </symbol>
    <symbol
       id="l"
       overflow="visible">
      <path
         d="m 0.34375,-15.312 h 4.8906 l 4.125,10.391 3.5,-10.391 h 4.8906 l -6.4375,16.766 c -0.64844,1.6953 -1.4023,2.8828 -2.2656,3.5625 -0.86719,0.6875 -2,1.0312 -3.4062,1.0312 H 2.79685 V 2.8289 h 1.5312 c 0.83203,0 1.4375,-0.13672 1.8125,-0.40625 C 6.52336,2.16093 6.82024,1.69218 7.03117,1.01645 L 7.17179,0.59457 Z"
         id="path23" />
    </symbol>
    <symbol
       id="k"
       overflow="visible">
      <path
         d="m 2.5781,-20.406 h 5.25 V -1.984 C 7.8281,0.5551 7.13279,2.4574 5.75,3.7191 4.375,4.9769 2.2891,5.6097 -0.5,5.6097 H -1.5781 V 1.6253 h 0.82812 c 1.0938,0 1.9219,-0.30859 2.4844,-0.92188 0.5625,-0.60547 0.84375,-1.5 0.84375,-2.6875 z"
         id="path26" />
    </symbol>
    <symbol
       id="j"
       overflow="visible">
      <path
         d="M 17.75,-9.3281 V 0 h -4.9219 v -7.1406 c 0,-1.3203 -0.03125,-2.2344 -0.09375,-2.7344 -0.0625,-0.5 -0.16797,-0.86719 -0.3125,-1.1094 -0.1875,-0.3125 -0.44922,-0.55469 -0.78125,-0.73438 -0.32422,-0.17578 -0.69531,-0.26562 -1.1094,-0.26562 -1.0234,0 -1.8242,0.39844 -2.4062,1.1875 -0.58594,0.78125 -0.875,1.8711 -0.875,3.2656 V -1e-4 H 2.3594 v -15.312 H 7.25 v 2.2344 c 0.73828,-0.88281 1.5195,-1.5391 2.3438,-1.9688 0.83203,-0.42578 1.75,-0.64062 2.75,-0.64062 1.7695,0 3.1133,0.54688 4.0312,1.6406 0.91406,1.0859 1.375,2.6562 1.375,4.7188 z"
         id="path29" />
    </symbol>
    <symbol
       id="i"
       overflow="visible">
      <path
         d="m 2.5781,-20.406 h 8.7344 c 2.5938,0 4.582,0.57812 5.9688,1.7344 1.3945,1.1484 2.0938,2.7891 2.0938,4.9219 0,2.1367 -0.69922,3.7812 -2.0938,4.9375 -1.3867,1.1562 -3.375,1.7344 -5.9688,1.7344 H 7.8281 V 3e-4 h -5.25 z m 5.25,3.8125 v 5.7031 H 10.75 c 1.0195,0 1.8047,-0.25 2.3594,-0.75 0.5625,-0.5 0.84375,-1.2031 0.84375,-2.1094 0,-0.91406 -0.28125,-1.6172 -0.84375,-2.1094 -0.55469,-0.48828 -1.3398,-0.73438 -2.3594,-0.73438 z"
         id="path32" />
    </symbol>
    <symbol
       id="h"
       overflow="visible">
      <path
         d="M 2.3594,-21.281 H 7.25 V 0 H 2.3594 Z"
         id="path35" />
    </symbol>
    <symbol
       id="g"
       overflow="visible">
      <path
         d="M 2.3594,-15.312 H 7.25 V 0 H 2.3594 Z m 0,-5.9688 H 7.25 v 4 H 2.3594 Z"
         id="path38" />
    </symbol>
    <symbol
       id="e"
       overflow="visible">
      <path
         d="m 14.719,-14.828 v 3.9844 c -0.65625,-0.45703 -1.3242,-0.79688 -2,-1.0156 -0.66797,-0.21875 -1.3594,-0.32812 -2.0781,-0.32812 -1.3672,0 -2.4336,0.40234 -3.2031,1.2031 -0.76172,0.79297 -1.1406,1.9062 -1.1406,3.3438 0,1.4297 0.37891,2.543 1.1406,3.3438 0.76953,0.79297 1.8359,1.1875 3.2031,1.1875 0.75781,0 1.4844,-0.10938 2.1719,-0.32812 0.6875,-0.22656 1.3203,-0.56641 1.9062,-1.0156 v 4 c -0.76172,0.28125 -1.5391,0.48828 -2.3281,0.625 -0.78125,0.14453 -1.5742,0.21875 -2.375,0.21875 -2.7617,0 -4.9219,-0.70703 -6.4844,-2.125 -1.5547,-1.4141 -2.3281,-3.3828 -2.3281,-5.9062 0,-2.5312 0.77344,-4.5039 2.3281,-5.9219 1.5625,-1.4141 3.7227,-2.125 6.4844,-2.125 0.80078,0 1.5938,0.07422 2.375,0.21875 0.78125,0.13672 1.5547,0.35156 2.3281,0.64062 z"
         id="path41" />
    </symbol>
    <symbol
       id="c"
       overflow="visible">
      <path
         d="m 9.6406,-12.188 c -1.0859,0 -1.9141,0.39062 -2.4844,1.1719 -0.57422,0.78125 -0.85938,1.9062 -0.85938,3.375 0,1.4688 0.28516,2.5938 0.85938,3.375 0.57031,0.77344 1.3984,1.1562 2.4844,1.1562 1.0625,0 1.875,-0.38281 2.4375,-1.1562 0.57031,-0.78125 0.85938,-1.9062 0.85938,-3.375 0,-1.4688 -0.28906,-2.5938 -0.85938,-3.375 -0.5625,-0.78125 -1.375,-1.1719 -2.4375,-1.1719 z m 0,-3.5 c 2.6328,0 4.6914,0.71484 6.1719,2.1406 1.4766,1.418 2.2188,3.3867 2.2188,5.9062 0,2.5117 -0.74219,4.4805 -2.2188,5.9062 C 14.332,-0.317 12.2734,0.39 9.6406,0.39 6.9922,0.39 4.9258,-0.31703 3.4375,-1.735 1.9453,-3.1608 1.2031,-5.1295 1.2031,-7.6412 c 0,-2.5195 0.74219,-4.4883 2.2344,-5.9062 1.4883,-1.4258 3.5547,-2.1406 6.2031,-2.1406 z"
         id="path44" />
    </symbol>
    <symbol
       id="t"
       overflow="visible">
      <path
         d="m 12.422,-21.281 v 3.2188 H 9.7189 c -0.6875,0 -1.1719,0.125 -1.4531,0.375 -0.27344,0.25 -0.40625,0.6875 -0.40625,1.3125 v 1.0625 h 4.1875 v 3.5 H 7.85955 V -2e-4 h -4.8906 v -11.812 h -2.4375 v -3.5 h 2.4375 v -1.0625 c 0,-1.6641 0.46094,-2.8984 1.3906,-3.7031 0.92578,-0.80078 2.3672,-1.2031 4.3281,-1.2031 z"
         id="path47" />
    </symbol>
    <symbol
       id="s"
       overflow="visible">
      <path
         d="m 16.547,-12.766 c 0.61328,-0.94531 1.3477,-1.6719 2.2031,-2.1719 0.85156,-0.5 1.7891,-0.75 2.8125,-0.75 1.7578,0 3.0977,0.54688 4.0156,1.6406 0.92578,1.0859 1.3906,2.6562 1.3906,4.7188 V -4e-4 h -4.9219 v -7.9844 -0.35938 c 0.0078,-0.13281 0.01563,-0.32031 0.01563,-0.5625 0,-1.082 -0.16406,-1.8633 -0.48438,-2.3438 -0.3125,-0.48828 -0.82422,-0.73438 -1.5312,-0.73438 -0.92969,0 -1.6484,0.38672 -2.1562,1.1562 -0.51172,0.76172 -0.77344,1.8672 -0.78125,3.3125 v 7.5156 h -4.9219 v -7.9844 c 0,-1.6953 -0.14844,-2.7852 -0.4375,-3.2656 -0.29297,-0.48828 -0.8125,-0.73438 -1.5625,-0.73438 -0.9375,0 -1.6641,0.38672 -2.1719,1.1562 -0.51172,0.76172 -0.76562,1.8594 -0.76562,3.2969 v 7.5312 h -4.9219 v -15.312 h 4.9219 v 2.2344 c 0.60156,-0.86328 1.2891,-1.5156 2.0625,-1.9531 0.78125,-0.4375 1.6406,-0.65625 2.5781,-0.65625 1.0625,0 2,0.25781 2.8125,0.76562 0.8125,0.51172 1.4258,1.2305 1.8438,2.1562 z"
         id="path50" />
    </symbol>
    <symbol
       id="r"
       overflow="visible">
      <path
         d="M 17.75,-9.3281 V 0 h -4.9219 v -7.1094 c 0,-1.3438 -0.03125,-2.2656 -0.09375,-2.7656 -0.0625,-0.5 -0.16797,-0.86719 -0.3125,-1.1094 -0.1875,-0.3125 -0.44922,-0.55469 -0.78125,-0.73438 -0.32422,-0.17578 -0.69531,-0.26562 -1.1094,-0.26562 -1.0234,0 -1.8242,0.39844 -2.4062,1.1875 -0.58594,0.78125 -0.875,1.8711 -0.875,3.2656 V -1e-4 H 2.3594 v -21.281 H 7.25 v 8.2031 c 0.73828,-0.88281 1.5195,-1.5391 2.3438,-1.9688 0.83203,-0.42578 1.75,-0.64062 2.75,-0.64062 1.7695,0 3.1133,0.54688 4.0312,1.6406 0.91406,1.0859 1.375,2.6562 1.375,4.7188 z"
         id="path53" />
    </symbol>
    <symbol
       id="q"
       overflow="visible">
      <path
         d="m 2.5781,-20.406 h 5.875 l 7.4219,14 v -14 h 4.9844 V 0 h -5.875 L 7.5625,-14 V 0 H 2.5781 Z"
         id="path56" />
    </symbol>
    <symbol
       id="p"
       overflow="visible">
      <path
         d="m 2.1875,-5.9688 v -9.3438 h 4.9219 v 1.5312 c 0,0.83594 -0.00781,1.875 -0.015625,3.125 -0.011719,1.25 -0.015625,2.0859 -0.015625,2.5 0,1.2422 0.03125,2.1328 0.09375,2.6719 0.070313,0.54297 0.17969,0.93359 0.32812,1.1719 0.20703,0.32422 0.47266,0.57422 0.79688,0.75 0.32031,0.16797 0.69141,0.25 1.1094,0.25 1.0195,0 1.8203,-0.39062 2.4062,-1.1719 0.58203,-0.78125 0.875,-1.8672 0.875,-3.2656 v -7.5625 h 4.8906 V -6e-4 H 12.6875 V -2.2194 C 11.94531,-1.32096 11.1641,-0.6608 10.3437,-0.235 9.51948,0.17906 8.6093,0.39 7.6093,0.39 5.8476,0.39 4.5038,-0.14906 3.5781,-1.235 2.64841,-2.317 2.1875,-3.8952 2.1875,-5.9694 Z"
         id="path59" />
    </symbol>
    <symbol
       id="o"
       overflow="visible">
      <path
         d="M 2.3594,-15.312 H 7.25 v 15.031 c 0,2.0508 -0.49609,3.6172 -1.4844,4.7031 -0.98047,1.082 -2.4062,1.625 -4.2812,1.625 H -0.9375 V 2.8283 h 0.85938 c 0.92578,0 1.5625,-0.21094 1.9062,-0.625 0.35156,-0.41797 0.53125,-1.2461 0.53125,-2.4844 z m 0,-5.9688 H 7.25 v 4 H 2.3594 Z"
         id="path62" />
    </symbol>
  </defs>
  <g
     id="g1154"
     transform="translate(-69.878995,0.125005)">
    <path
       d="m 596.68,160.02 c -3.2969,-6.9062 -6.8984,-13.641 -10.734,-20.227 -177.87,36.68 -393.37,133.17 -488.31,276.12 23.348,42.285 57.293,77.879 98.254,103.25 82.57,-159.86 296.18,-320.96 400.79,-359.14 z"
       fill="#010101"
       id="path67" />
    <path
       d="M 569.87,115.16 C 518.843,45.367 436.39,0 343.32,0 223.03,0 120.46,75.738 80.6,182.12 224.3,110.729 448.67,96.733 569.88,115.155 Z"
       fill="#010101"
       id="path69" />
    <path
       d="M 366.55,560 C 510.6,548.18 623.84,427.61 623.84,280.52 c 0,-38.336 -7.7109,-74.867 -21.621,-108.15 -97.75,99.91 -195.99,245.55 -235.66,387.63 z"
       fill="#010101"
       id="path71" />
    <path
       d="m 136.56,263.66 h 8.8203 v 80.457 H 136.56 Z"
       fill="#010101"
       id="path73" />
    <path
       d="m 125.27,201.32 c 15.695,14.727 20.809,46.312 19.891,62.223 31.199,-25.34 -3.1641,-73.965 -30.414,-80.164 1.8477,12.363 0.59766,23.805 -1.25,34.027 -4.0312,22.539 6.4922,44.516 23.52,46.312 0.44922,-11.414 3.9492,-27.555 -11.746,-62.398 z"
       fill="#010101"
       id="path75" />
    <path
       d="m 90.207,271.15 c 9.3281,-4.2617 32.93,-2.2461 43.113,0.44922 -17.836,-26.98 -49.988,-10.277 -57.152,2.7891 8.5664,1.332 15.871,4.5469 22.25,7.875 14.062,7.3516 30.777,4.957 35.516,-5.9453 -7.4609,-2.6445 -32.969,-5.3633 -43.727,-5.168 z"
       fill="#010101"
       id="path77" />
    <path
       d="m 179.8,258.91 c -2.2188,9.9805 -18.07,27.621 -26.332,34.098 32.262,2.0625 38.332,-33.672 32.223,-47.258 -6.2383,6.0312 -13.211,9.918 -19.707,12.992 -14.363,6.7812 -22.52,21.582 -16.688,31.914 6.6406,-4.3477 24.199,-23.066 30.504,-31.746 z"
       fill="#010101"
       id="path79" />
    <path
       d="m 328.47,468.53 h 8.8203 v 80.457 H 328.47 Z"
       fill="#010101"
       id="path81" />
    <path
       d="m 317.19,406.19 c 15.695,14.727 20.809,46.312 19.891,62.211 31.203,-25.328 -3.1641,-73.965 -30.414,-80.152 1.8477,12.363 0.59375,23.816 -1.25,34.02 -4.0312,22.535 6.4922,44.527 23.52,46.316 0.44531,-11.414 3.9453,-27.559 -11.746,-62.395 z"
       fill="#010101"
       id="path83" />
    <path
       d="m 282.12,476.02 c 9.3281,-4.2734 32.93,-2.2461 43.109,0.44141 -17.84,-26.98 -49.992,-10.281 -57.16,2.7812 8.5664,1.332 15.875,4.5469 22.25,7.875 14.062,7.3516 30.777,4.957 35.516,-5.9297 -7.4453,-2.6523 -32.953,-5.3633 -43.715,-5.168 z"
       fill="#010101"
       id="path85" />
    <path
       d="m 371.73,463.77 c -2.2188,9.9844 -18.066,27.625 -26.324,34.105 32.262,2.0508 38.336,-33.684 32.223,-47.258 -6.2383,6.0195 -13.211,9.9102 -19.707,12.988 -14.348,6.7773 -22.52,21.582 -16.676,31.91 6.6133,-4.3516 24.168,-23.078 30.484,-31.746 z"
       fill="#010101"
       id="path87" />
    <path
       d="m 250.46,201.24 h 6.4102 v 58.438 H 250.46 Z"
       fill="#010101"
       id="path89" />
    <path
       d="m 242.27,155.98 c 11.395,10.691 15.109,33.629 14.438,45.176 22.668,-18.395 -2.3008,-53.715 -22.074,-58.199 1.3438,8.9766 0.42969,17.293 -0.91797,24.707 -2.918,16.359 4.7148,32.328 17.078,33.641 0.32813,-8.3008 2.8711,-20.027 -8.5234,-45.324 z"
       fill="#010101"
       id="path91" />
    <path
       d="m 216.8,206.68 c 6.7656,-3.0898 23.91,-1.6289 31.316,0.32422 -12.969,-19.594 -36.305,-7.4648 -41.508,2.0234 6.2227,0.96875 11.531,3.2969 16.156,5.7188 10.219,5.3477 22.348,3.6016 25.789,-4.3047 -5.418,-1.9414 -23.938,-3.9023 -31.754,-3.7617 z"
       fill="#010101"
       id="path93" />
    <path
       d="m 281.88,197.79 c -1.6172,7.2422 -13.121,20.055 -19.117,24.758 23.426,1.4883 27.836,-24.461 23.406,-34.328 -4.543,4.3672 -9.5938,7.2031 -14.312,9.4375 -10.434,4.918 -16.352,15.68 -12.117,23.172 4.8086,-3.1445 17.562,-16.746 22.141,-23.039 z"
       fill="#010101"
       id="path95" />
    <path
       d="m 403.57,367.28 h 6.418 v 58.453 h -6.418 z"
       fill="#010101"
       id="path97" />
    <path
       d="m 395.37,322.02 c 11.395,10.691 15.102,33.633 14.449,45.176 22.664,-18.395 -2.3008,-53.723 -22.082,-58.211 1.3477,8.9805 0.4375,17.305 -0.92578,24.719 -2.9102,16.363 4.7227,32.328 17.086,33.645 0.33203,-8.3125 2.875,-20.035 -8.5273,-45.328 z"
       fill="#010101"
       id="path99" />
    <path
       d="m 369.91,372.74 c 6.7695,-3.1094 23.91,-1.6445 31.32,0.32031 -12.965,-19.602 -36.301,-7.4648 -41.5,2.0156 6.2031,0.97266 11.531,3.3086 16.16,5.7188 10.23,5.3359 22.348,3.6055 25.793,-4.3164 -5.4219,-1.9258 -23.957,-3.8906 -31.773,-3.7383 z"
       fill="#010101"
       id="path101" />
    <path
       d="m 434.98,363.83 c -1.6133,7.2344 -13.113,20.059 -19.117,24.77 23.426,1.4766 27.832,-24.457 23.406,-34.332 -4.5352,4.375 -9.5938,7.2109 -14.309,9.4414 -10.426,4.918 -16.363,15.676 -12.117,23.16 4.8047,-3.1484 17.551,-16.746 22.137,-23.039 z"
       fill="#010101"
       id="path103" />
    <path
       d="m 357.02,161.41 h 4.582 v 39.211 h -4.582 z"
       fill="#010101"
       id="path105" />
    <path
       d="m 350.65,131.05 c 8.668,7.1797 11.48,22.559 10.988,30.312 17.238,-12.344 -1.7578,-36.043 -16.812,-39.059 1.0312,6.0352 0.33203,11.602 -0.69531,16.574 -2.2109,10.98 3.5938,21.688 13.004,22.562 0.23047,-5.543 2.1602,-13.418 -6.4844,-30.391 z"
       fill="#010101"
       id="path107" />
    <path
       d="m 331.28,165.07 c 5.1523,-2.0781 18.172,-1.0977 23.812,0.21094 -9.8555,-13.145 -27.602,-5.0117 -31.555,1.3555 4.7305,0.64844 8.7656,2.2188 12.285,3.8398 7.7734,3.5859 16.992,2.4062 19.602,-2.9023 -4.1133,-1.2812 -18.191,-2.5859 -24.145,-2.5039 z"
       fill="#010101"
       id="path109" />
    <path
       d="m 380.76,159.11 c -1.2266,4.8672 -9.9609,13.457 -14.547,16.613 17.809,0.99219 21.168,-16.418 17.797,-23.039 -3.457,2.9336 -7.3008,4.8438 -10.887,6.3281 -7.9297,3.3047 -12.426,10.516 -9.207,15.559 3.6523,-2.1016 13.363,-11.23 16.844,-15.461 z"
       fill="#010101"
       id="path111" />
    <path
       d="m 473.46,277.86 h 4.5703 v 39.211 H 473.46 Z"
       fill="#010101"
       id="path113" />
    <path
       d="m 467.09,247.5 c 8.668,7.1719 11.496,22.559 10.988,30.301 17.242,-12.332 -1.7539,-36.043 -16.793,-39.059 1.0234,6.0352 0.33203,11.609 -0.6875,16.586 -2.2188,10.977 3.5859,21.684 12.992,22.562 0.23437,-5.5547 2.1719,-13.418 -6.5,-30.391 z"
       fill="#010101"
       id="path115" />
    <path
       d="m 447.72,281.52 c 5.1445,-2.0703 18.176,-1.0938 23.816,0.21094 -9.8555,-13.145 -27.609,-5.0078 -31.566,1.3555 4.7305,0.64844 8.7695,2.2188 12.293,3.8398 7.7578,3.5898 16.98,2.4141 19.602,-2.8945 -4.1172,-1.293 -18.191,-2.5977 -24.145,-2.5117 z"
       fill="#010101"
       id="path117" />
    <path
       d="m 497.21,275.56 c -1.2422,4.8672 -9.9727,13.453 -14.566,16.605 17.824,0.99609 21.18,-16.414 17.809,-23.027 -3.4609,2.9336 -7.2969,4.8281 -10.887,6.3242 -7.918,3.3047 -12.434,10.516 -9.2188,15.551 3.6719,-2.1133 13.371,-11.234 16.863,-15.453 z"
       fill="#010101"
       id="path119" />
    <path
       d="m 444.11,141.54 h 3.0859 v 26.473 H 444.11 Z"
       fill="#010101"
       id="path121" />
    <path
       d="m 439.8,121.05 c 5.8359,4.8438 7.7461,15.223 7.4023,20.457 11.637,-8.3398 -1.1641,-24.332 -11.34,-26.359 0.69531,4.0703 0.21875,7.8281 -0.46484,11.195 -1.5078,7.4102 2.4297,14.645 8.7734,15.23 0.16406,-3.7578 1.4648,-9.0742 -4.3711,-20.523 z"
       fill="#010101"
       id="path123" />
    <path
       d="m 426.72,144.01 c 3.4648,-1.3984 12.258,-0.73828 16.078,0.15234 -6.6523,-8.875 -18.633,-3.375 -21.301,0.91406 3.1914,0.44141 5.9375,1.5 8.3047,2.5938 5.2422,2.418 11.465,1.625 13.211,-1.9609 -2.7695,-0.875 -12.281,-1.7461 -16.293,-1.6992 z"
       fill="#010101"
       id="path125" />
    <path
       d="m 460.13,139.98 c -0.83594,3.2891 -6.7539,9.082 -9.8164,11.219 12.02,0.67188 14.27,-11.078 12,-15.551 -2.3281,1.9805 -4.918,3.2656 -7.3477,4.2773 -5.3477,2.2227 -8.3789,7.0898 -6.2031,10.496 2.4414,-1.4336 9.0156,-7.582 11.367,-10.441 z"
       fill="#010101"
       id="path127" />
  </g>
</svg>
